# Blender v3.0.0 OBJ File: 'untitled.blend'
# www.blender.org
mtllib rock v1.mtl
o Icosphere
v -0.025832 -0.173880 0.000885
v 0.423811 0.105158 0.370937
v -0.161611 0.087085 0.487743
v -0.646020 0.095869 -0.118130
v -0.329216 0.034939 -0.500971
v 0.314273 0.117243 -0.223353
v 0.095127 0.448116 0.394819
v -0.507277 0.564695 0.226976
v -0.442629 0.640306 -0.279299
v 0.115942 0.534094 -0.466445
v 0.552579 0.496994 0.116701
v -0.036649 0.808111 -0.024998
v -0.135310 -0.101779 0.224160
v 0.233959 -0.123337 0.180340
v 0.124214 0.035909 0.378504
v 0.477861 -0.023229 0.089369
v 0.186238 -0.173269 -0.066688
v -0.334226 -0.071468 -0.019141
v -0.532520 0.098757 0.203262
v -0.214283 -0.113187 -0.213608
v -0.438675 0.077796 -0.327305
v -0.026626 -0.046283 -0.425263
v 0.541972 0.329296 0.167204
v 0.557990 0.273712 -0.127419
v 0.046400 0.341731 0.576137
v 0.316449 0.317656 0.408203
v -0.649528 0.335378 0.123138
v -0.458646 0.406307 0.427912
v -0.415823 0.366726 -0.424043
v -0.570370 0.320217 -0.162926
v 0.278116 0.304962 -0.409770
v -0.130315 0.291175 -0.477328
v 0.402816 0.465552 0.233598
v -0.151465 0.624110 0.325244
v -0.545855 0.566436 -0.009986
v -0.183376 0.633818 -0.472744
v 0.388795 0.546579 -0.228169
v -0.011418 0.679225 0.227410
v 0.270153 0.674859 0.052421
v -0.292706 0.747766 0.106184
v -0.214308 0.823482 -0.263482
v 0.071208 0.744635 -0.284864
vt 0.181819 0.000000
vt 0.227273 0.078731
vt 0.136365 0.078731
vt 0.272728 0.157461
vt 0.318182 0.078731
vt 0.363637 0.157461
vt 0.909091 0.000000
vt 0.954545 0.078731
vt 0.863636 0.078731
vt 0.727273 0.000000
vt 0.772727 0.078731
vt 0.681818 0.078731
vt 0.545455 0.000000
vt 0.590909 0.078731
vt 0.500000 0.078731
vt 0.318182 0.236191
vt 0.090910 0.157461
vt 0.181819 0.157461
vt 0.136365 0.236191
vt 0.818182 0.157461
vt 0.909091 0.157461
vt 0.863636 0.236191
vt 0.636364 0.157461
vt 0.727273 0.157461
vt 0.681818 0.236191
vt 0.454546 0.157461
vt 0.545455 0.157461
vt 0.500000 0.236191
vt 0.227273 0.236191
vt 0.045455 0.236191
vt 0.772727 0.236191
vt 0.590909 0.236191
vt 0.409092 0.236191
vt 0.181819 0.314921
vt 0.272728 0.314921
vt 0.227273 0.393651
vt 0.000000 0.314921
vt 0.090910 0.314921
vt 0.045455 0.393651
vt 0.727273 0.314921
vt 0.818182 0.314921
vt 0.772727 0.393651
vt 0.545455 0.314921
vt 0.636364 0.314921
vt 0.590909 0.393651
vt 0.363637 0.314921
vt 0.454546 0.314921
vt 0.409092 0.393651
vt 0.500000 0.393651
vt 0.454546 0.472382
vt 0.681818 0.393651
vt 0.636364 0.472382
vt 0.863636 0.393651
vt 0.818182 0.472382
vt 0.909091 0.314921
vt 0.136365 0.393651
vt 0.090910 0.472382
vt 0.318182 0.393651
vt 0.272728 0.472382
vt 0.954545 0.236191
vt 1.000000 0.157461
vt 0.409092 0.078731
vt 0.363637 0.000000
vn -0.0203 -0.9543 0.2982
vn 0.4764 -0.7619 0.4388
vn -0.3203 -0.9361 0.1452
vn -0.3157 -0.9488 0.0089
vn -0.0664 -0.9739 -0.2172
vn 0.9302 -0.2320 0.2843
vn 0.2352 -0.4846 0.8425
vn -0.8885 -0.3321 0.3167
vn -0.8528 -0.1039 -0.5118
vn 0.6062 -0.4986 -0.6196
vn 0.7034 0.2379 0.6698
vn -0.2913 -0.0926 0.9521
vn -0.9274 0.2587 -0.2703
vn -0.1309 0.1914 -0.9727
vn 0.5794 -0.5154 -0.6314
vn 0.3242 0.6484 0.6888
vn -0.2909 0.7406 0.6057
vn -0.6245 0.7806 -0.0253
vn 0.2358 0.6629 -0.7106
vn 0.5505 0.8224 -0.1432
vn 0.4090 0.9110 -0.0528
vn 0.5423 0.8269 -0.1488
vn 0.4971 0.6248 -0.6020
vn 0.2551 0.9584 -0.1282
vn 0.1565 0.7432 -0.6505
vn -0.4570 0.6244 -0.6335
vn -0.1430 0.9751 0.1694
vn -0.5936 0.8038 0.0388
vn -0.6105 0.7850 0.1052
vn 0.0220 0.8913 0.4529
vn 0.0005 0.8710 0.4913
vn 0.2535 0.6414 0.7241
vn 0.2719 0.8678 0.4159
vn 0.3684 0.7309 0.5746
vn 0.3204 0.7279 0.6063
vn 0.8492 0.3988 -0.3460
vn 0.7079 0.1875 -0.6809
vn 0.6277 0.2631 -0.7326
vn 0.0269 0.0175 -0.9995
vn -0.1875 -0.0159 -0.9821
vn -0.5556 0.3456 -0.7562
vn -0.9222 0.2661 -0.2805
vn -0.9270 0.2602 -0.2703
vn -0.8689 0.4734 0.1449
vn -0.2946 0.7146 0.6345
vn -0.1561 0.5927 0.7902
vn 0.3816 0.7488 0.5419
vn 0.3308 0.6330 0.6999
vn 0.6694 0.3697 0.6443
vn 0.5759 0.2021 0.7922
vn 0.1660 -0.1245 -0.9782
vn 0.1657 -0.1005 -0.9811
vn 0.2211 -0.0820 -0.9718
vn -0.8611 0.1693 -0.4795
vn -0.8471 -0.1073 -0.5205
vn -0.7027 0.0962 -0.7049
vn -0.8357 0.3145 0.4502
vn -0.8056 -0.2109 0.5536
vn -0.5675 -0.3924 0.7238
vn 0.4024 0.7383 0.5413
vn 0.4589 -0.3969 0.7949
vn 0.0582 -0.1438 0.9879
vn 0.9971 -0.0442 0.0626
vn 0.9761 -0.1975 0.0903
vn 0.5913 -0.5735 -0.5669
vn 0.6038 -0.5678 -0.5595
vn -0.0243 -0.9468 -0.3209
vn -0.1397 -0.9018 -0.4090
vn -0.5857 -0.7917 -0.1738
vn -0.5798 -0.7929 -0.1875
vn -0.3765 -0.8774 -0.2974
vn -0.5101 -0.8394 0.1877
vn -0.4462 -0.8569 0.2580
vn -0.4103 -0.7602 0.5038
vn 0.5960 -0.5685 -0.5671
vn 0.4105 -0.9059 0.1038
vn 0.0622 -0.9805 0.1862
vn 0.0795 -0.8065 0.5858
vn 0.0305 -0.7708 0.6363
vn 0.1822 -0.7147 0.6753
usemtl rock
s off
f 1/1/1 14/2/1 13/3/1
f 2/4/2 14/5/2 16/6/2
f 1/7/3 13/8/3 18/9/3
f 1/10/4 18/11/4 20/12/4
f 1/13/5 20/14/5 17/15/5
f 2/4/6 16/6/6 23/16/6
f 3/17/7 15/18/7 25/19/7
f 4/20/8 19/21/8 27/22/8
f 5/23/9 21/24/9 29/25/9
f 6/26/10 22/27/10 31/28/10
f 2/4/11 23/16/11 26/29/11
f 3/17/12 25/19/12 28/30/12
f 4/20/13 27/22/13 30/31/13
f 5/23/14 29/25/14 32/32/14
f 6/26/15 31/28/15 24/33/15
f 7/34/16 33/35/16 38/36/16
f 8/37/17 34/38/17 40/39/17
f 9/40/18 35/41/18 41/42/18
f 10/43/19 36/44/19 42/45/19
f 11/46/20 37/47/20 39/48/20
f 39/48/21 42/49/21 12/50/21
f 39/48/22 37/47/22 42/49/22
f 37/47/23 10/43/23 42/49/23
f 42/45/24 41/51/24 12/52/24
f 42/45/25 36/44/25 41/51/25
f 36/44/26 9/40/26 41/51/26
f 41/42/27 40/53/27 12/54/27
f 41/42/28 35/41/28 40/53/28
f 35/41/29 8/55/29 40/53/29
f 40/39/30 38/56/30 12/57/30
f 40/39/31 34/38/31 38/56/31
f 34/38/32 7/34/32 38/56/32
f 38/36/33 39/58/33 12/59/33
f 38/36/34 33/35/34 39/58/34
f 33/35/35 11/46/35 39/58/35
f 24/33/36 37/47/36 11/46/36
f 24/33/37 31/28/37 37/47/37
f 31/28/38 10/43/38 37/47/38
f 32/32/39 36/44/39 10/43/39
f 32/32/40 29/25/40 36/44/40
f 29/25/41 9/40/41 36/44/41
f 30/31/42 35/41/42 9/40/42
f 30/31/43 27/22/43 35/41/43
f 27/22/44 8/55/44 35/41/44
f 28/30/45 34/38/45 8/37/45
f 28/30/46 25/19/46 34/38/46
f 25/19/47 7/34/47 34/38/47
f 26/29/48 33/35/48 7/34/48
f 26/29/49 23/16/49 33/35/49
f 23/16/50 11/46/50 33/35/50
f 31/28/51 32/32/51 10/43/51
f 31/28/52 22/27/52 32/32/52
f 22/27/53 5/23/53 32/32/53
f 29/25/54 30/31/54 9/40/54
f 29/25/55 21/24/55 30/31/55
f 21/24/56 4/20/56 30/31/56
f 27/22/57 28/60/57 8/55/57
f 27/22/58 19/21/58 28/60/58
f 19/21/59 3/61/59 28/60/59
f 25/19/60 26/29/60 7/34/60
f 25/19/61 15/18/61 26/29/61
f 15/18/62 2/4/62 26/29/62
f 23/16/63 24/33/63 11/46/63
f 23/16/64 16/6/64 24/33/64
f 16/6/65 6/26/65 24/33/65
f 17/15/66 22/27/66 6/26/66
f 17/15/67 20/14/67 22/27/67
f 20/14/68 5/23/68 22/27/68
f 20/12/69 21/24/69 5/23/69
f 20/12/70 18/11/70 21/24/70
f 18/11/71 4/20/71 21/24/71
f 18/9/72 19/21/72 4/20/72
f 18/9/73 13/8/73 19/21/73
f 13/8/74 3/61/74 19/21/74
f 16/6/75 17/62/75 6/26/75
f 16/6/76 14/5/76 17/62/76
f 14/5/77 1/63/77 17/62/77
f 13/3/78 15/18/78 3/17/78
f 13/3/79 14/2/79 15/18/79
f 14/2/80 2/4/80 15/18/80
